HIERARCHY
ROOT hip
{
	OFFSET 0.000000 0.000000 0.000000 
	CHANNELS 6 Xposition Yposition Zposition Xrotation Zrotation Yrotation
	JOINT abdomen
	{
		OFFSET 0.000000 3.402643 0.000000 
		CHANNELS 3 Xrotation Zrotation Yrotation
		JOINT chest
		{
			OFFSET 0.000000 8.438565 -0.680529 
			CHANNELS 3 Xrotation Zrotation Yrotation
			JOINT neck
			{
				OFFSET 0.000000 10.207942 -0.272212 
				CHANNELS 3 Xrotation Zrotation Yrotation
				JOINT head
				{
					OFFSET 0.000000 3.130431 0.000000 
					CHANNELS 3 Xrotation Zrotation Yrotation
					End Site
					{
						OFFSET 0.000000 3.130435 0.000000 
					}
				}
			}
			JOINT lCollar
			{
				OFFSET 3.470700 6.669187 -0.816635 
				CHANNELS 3 Yrotation Zrotation Xrotation
				JOINT lShldr
				{
					OFFSET 3.198488 0.000000 0.000000 
					CHANNELS 3 Zrotation Yrotation Xrotation
					JOINT lForeArm
					{
						OFFSET 10.139888 0.000000 0.000000 
						CHANNELS 3 Yrotation Zrotation Xrotation
						JOINT lHand
						{
							OFFSET 8.370511 0.000000 0.000000 
							CHANNELS 3 Zrotation Yrotation Xrotation
							End Site
							{
								OFFSET 4.083176 0.000000 0.000000 
							}
						}
					}
				}
			}
			JOINT rCollar
			{
				OFFSET -3.470700 6.669187 -0.816635 
				CHANNELS 3 Yrotation Zrotation Xrotation
				JOINT rShldr
				{
					OFFSET -3.198488 0.000000 0.000000 
					CHANNELS 3 Zrotation Yrotation Xrotation
					JOINT rForeArm
					{
						OFFSET -10.139888 0.000000 0.000000 
						CHANNELS 3 Yrotation Zrotation Xrotation
						JOINT rHand
						{
							OFFSET -8.370511 0.000000 0.000000 
							CHANNELS 3 Zrotation Yrotation Xrotation
							End Site
							{
								OFFSET -4.083176 0.000000 0.000000 
							}
						}
					}
				}
			}
		}
	}
	JOINT lThigh
	{
		OFFSET 5.308129 -1.633274 1.361059 
		CHANNELS 3 Xrotation Zrotation Yrotation
		JOINT lShin
		{
			OFFSET -2.041588 -20.007561 0.000000 
			CHANNELS 3 Xrotation Zrotation Yrotation
			JOINT lFoot
			{
				OFFSET 0.000000 -19.190928 -1.224953 
				CHANNELS 3 Xrotation Yrotation Zrotation
				End Site
				{
					OFFSET 0.000000 -2.449906 4.627600 
				}
			}
		}
	}
	JOINT rThigh
	{
		OFFSET -5.308129 -1.633274 1.361059 
		CHANNELS 3 Xrotation Zrotation Yrotation
		JOINT rShin
		{
			OFFSET 2.041588 -20.007561 0.000000 
			CHANNELS 3 Xrotation Zrotation Yrotation
			JOINT rFoot
			{
				OFFSET 0.000000 -19.190928 -1.224953 
				CHANNELS 3 Xrotation Yrotation Zrotation
				End Site
				{
					OFFSET 0.000000 -2.449906 4.627600 
				}
			}
		}
	}
}
MOTION
Frames: 20
Frame Time: 0.016667
0.057932 53.364342 -0.248628 -10.995840 0.341650 1.679774 24.145214 1.946898 -0.129537 3.740757 1.308277 -1.894649 -4.737569 3.852286 -0.454958 11.638914 -2.359338 8.053679 -17.417042 -10.974046 -0.570756 -65.206940 13.720309 -26.079233 -23.235039 -5.000000 28.253496 -16.615709 -4.275657 8.715520 14.001765 13.733858 -0.721674 63.824635 -11.110738 -24.434872 24.884460 5.000000 17.639593 13.594510 -25.919523 9.090566 18.747868 12.704384 8.228456 5.970903 -4.664810 -0.649282 -11.374803 4.352173 -5.196140 23.165424 -7.390786 -6.650505 -2.895872 2.768883 -0.103072 -5.010925 -12.495375 6.684600 
0.059100 53.363174 -0.236448 -11.005722 0.331884 1.709069 24.125189 1.945830 -0.150472 3.740980 1.308282 -1.884886 -4.668709 3.873059 -0.448246 11.629551 -2.359395 8.043920 -17.495266 -10.983799 -0.571259 -65.221680 13.791349 -26.177084 -23.223612 -5.000000 28.281176 -16.706917 -4.283315 8.647441 14.041208 13.763114 -0.723186 63.812653 -11.174639 -24.492844 24.904678 5.000000 17.697424 13.629687 -25.920084 8.974374 18.765408 12.713804 8.221929 5.963490 -4.658409 -0.648291 -11.348241 4.344066 -5.265360 23.220526 -7.382582 -6.667360 -2.914880 2.777252 -0.104644 -5.022557 -12.495732 6.705109 
0.059689 53.362587 -0.224954 -11.024904 0.341643 1.718836 24.105894 1.933385 -0.144912 3.721661 1.298519 -1.875121 -4.580895 3.882715 -0.449707 11.611788 -2.349782 8.033763 -17.573591 -11.003302 -0.572265 -65.225426 13.862620 -26.266302 -23.213017 -5.000000 28.273933 -16.770479 -4.319774 8.564697 14.080525 13.782619 -0.724195 63.800728 -11.238582 -24.550783 24.923445 5.000000 17.747087 13.644964 -25.923716 8.879537 18.806702 12.724286 8.235917 5.949359 -4.644106 -0.666549 -11.328102 4.299637 -5.364641 23.279404 -7.392203 -6.669788 -2.946459 2.799016 -0.136762 -5.033820 -12.472717 6.693057 
0.059695 53.362587 -0.214145 -11.034377 0.351404 1.718837 24.096699 1.913709 -0.121496 3.702338 1.278988 -1.884888 -4.482658 3.893833 -0.441534 11.582491 -2.349782 8.033762 -17.632385 -11.022807 -0.573271 -65.226677 13.938693 -26.340460 -23.192835 -5.000000 28.272947 -16.806974 -4.382137 8.475921 14.129609 13.802123 -0.725203 63.791199 -11.298094 -24.621557 24.931295 5.000000 17.791790 13.654211 -25.913708 8.812366 18.829315 12.692102 8.230539 5.933705 -4.648595 -0.655409 -11.295265 4.318965 -5.366293 23.309885 -7.392483 -6.659638 -2.958159 2.800865 -0.137480 -5.057055 -12.516753 6.683370 
0.059703 53.362587 -0.203336 -11.053616 0.361166 1.718839 24.087128 1.888548 -0.111132 3.672823 1.269215 -1.904415 -4.394184 3.904952 -0.432697 11.552794 -2.349725 8.043520 -17.700945 -11.042311 -0.574276 -65.236992 14.010446 -26.416965 -23.168531 -5.000000 28.268543 -16.852280 -4.446033 8.377926 14.168926 13.821627 -0.726211 63.779385 -11.362122 -24.679436 24.943756 5.000000 17.823713 13.668056 -25.901411 8.736662 18.863930 12.694700 8.241726 5.928789 -4.654605 -0.665371 -11.275531 4.267124 -5.446764 23.344305 -7.411420 -6.645304 -2.976386 2.809438 -0.148830 -5.062763 -12.495726 6.701723 
0.058612 53.362000 -0.194140 -11.053554 0.361164 1.728604 24.077692 1.897427 -0.106958 3.673473 1.269229 -1.884891 -4.335810 3.933918 -0.437075 11.542867 -2.359565 8.014649 -17.749975 -11.061815 -0.575282 -65.224609 14.052072 -26.475046 -23.148348 -5.000000 28.264988 -16.842058 -4.485657 8.246707 14.198606 13.850880 -0.727723 63.755253 -11.404185 -24.724947 24.949989 5.000000 17.841415 13.649725 -25.874819 8.705654 18.875216 12.695496 8.222149 5.931349 -4.635685 -0.654980 -11.244845 4.274193 -5.454593 23.357454 -7.402608 -6.642447 -2.973248 2.826954 -0.149558 -5.058839 -12.505219 6.686438 
0.057520 53.361416 -0.184947 -11.063614 0.351403 1.728603 24.058334 1.897329 -0.106626 3.664140 1.269238 -1.875131 -4.276698 3.954691 -0.430361 11.532547 -2.369349 7.995134 -17.789339 -11.091071 -0.576791 -65.220772 14.098238 -26.529030 -23.132952 -5.000000 28.260849 -16.842182 -4.521050 8.125572 14.218650 13.889890 -0.729739 63.720112 -11.446093 -24.759935 24.964224 5.000000 17.847765 13.632896 -25.854342 8.687442 18.877876 12.691773 8.222754 5.921706 -4.615901 -0.663301 -11.230639 4.238709 -5.461272 23.379326 -7.400215 -6.652461 -2.987434 2.840941 -0.141076 -5.054669 -12.546743 6.659250 
0.055791 53.360828 -0.176901 -11.063553 0.351401 1.738368 24.038818 1.888251 -0.110131 3.654798 1.259480 -1.855603 -4.217649 3.985120 -0.425106 11.520877 -2.388804 7.975620 -17.838467 -11.120328 -0.578300 -65.206383 14.135850 -26.578438 -23.117563 -5.000000 28.254156 -16.792797 -4.581016 7.975307 14.248590 13.938648 -0.734611 63.694416 -11.475208 -24.803082 24.973673 5.000000 17.846296 13.611411 -25.861301 8.668319 18.900759 12.693442 8.213566 5.903985 -4.607415 -0.641986 -11.234826 4.274698 -5.454546 23.403519 -7.391637 -6.669481 -2.995313 2.847964 -0.122435 -5.076702 -12.595525 6.626030 
0.053424 53.360241 -0.170003 -11.053431 0.361160 1.748135 24.019058 1.870600 -0.117302 3.645028 1.249712 -1.855602 -4.159347 4.023741 -0.430944 11.509756 -2.398475 7.975620 -17.877832 -11.149585 -0.579808 -65.202621 14.182067 -26.632376 -23.111076 -5.000000 28.247749 -16.695959 -4.656703 7.823699 14.268766 13.987406 -0.737137 63.668388 -11.513124 -24.839931 25.000273 5.000000 17.831743 13.597548 -25.903252 8.648364 18.900541 12.693376 8.193586 5.933241 -4.617284 -0.654359 -11.214676 4.285233 -5.514836 23.422016 -7.400930 -6.692111 -3.006030 2.879164 -0.124441 -5.104037 -12.560831 6.606134 
0.051057 53.359657 -0.163105 -11.043304 0.370919 1.757902 24.009518 1.858092 -0.111664 3.625706 1.230180 -1.845837 -4.110126 4.063825 -0.427150 11.497689 -2.417876 7.965860 -17.926968 -11.178840 -0.581316 -65.187790 14.228601 -26.677664 -23.090891 -5.000000 28.244175 -16.608534 -4.730618 7.672679 14.288947 14.036168 -0.739663 63.633736 -11.546441 -24.881081 25.012758 5.000000 17.829699 13.588318 -25.942913 8.619888 18.894297 12.684741 8.180525 5.930209 -4.605207 -0.653959 -11.170843 4.314217 -5.534324 23.412502 -7.400947 -6.712114 -2.994878 2.877815 -0.104206 -5.130408 -12.599932 6.586205 
0.047556 53.359577 -0.159047 -11.033240 0.380680 1.757903 23.999922 1.826989 -0.113377 3.606385 1.230185 -1.836073 -4.061226 4.054171 -0.425690 11.489278 -2.408204 7.965861 -17.946802 -11.208097 -0.582824 -65.189400 14.253438 -26.720795 -23.077856 -5.000000 28.245571 -16.494591 -4.838664 7.518493 14.309258 14.094676 -0.742694 63.594654 -11.579929 -24.898848 25.036484 5.000000 17.800640 13.557640 -25.954523 8.617910 18.882692 12.683856 8.170135 5.933239 -4.617286 -0.654359 -11.171233 4.317741 -5.576011 23.409025 -7.410564 -6.705196 -2.992738 2.894105 -0.104898 -5.145325 -12.606873 6.561537 
0.044054 53.359505 -0.154987 -11.022942 0.400204 1.748141 24.000158 1.805274 -0.111095 3.587067 1.239957 -1.826311 -4.021409 4.045977 -0.414599 11.479513 -2.408204 7.965861 -17.966742 -11.247105 -0.584835 -65.190498 14.287139 -26.759842 -23.064821 -5.000000 28.249508 -16.389885 -4.944895 7.363963 14.329441 14.143435 -0.745219 63.558025 -11.609031 -24.929440 25.058596 5.000000 17.778545 13.526962 -25.966143 8.615945 18.878370 12.672164 8.137972 5.931921 -4.635841 -0.625735 -11.165721 4.357373 -5.610444 23.389874 -7.439235 -6.723226 -2.973854 2.915179 -0.075286 -5.121903 -12.570287 6.557416 
0.040521 53.360088 -0.151676 -11.003113 0.409965 1.748142 23.980755 1.792524 -0.106018 3.567536 1.239957 -1.826311 -3.972580 4.045978 -0.414599 11.469748 -2.408204 7.965861 -17.976915 -11.286113 -0.586845 -65.181023 14.312299 -26.791925 -23.058327 -5.000000 28.240549 -16.283157 -5.029212 7.213165 14.349761 14.201946 -0.748248 63.519367 -11.633856 -24.951485 25.083931 5.000000 17.740797 13.506963 -25.994404 8.623666 18.870979 12.682939 8.149759 5.934638 -4.647692 -0.645627 -11.163891 4.314670 -5.674848 23.380350 -7.439251 -6.743224 -2.962391 2.913473 -0.064799 -5.132360 -12.589253 6.559012 
0.036960 53.361320 -0.149113 -10.992680 0.429485 1.757910 23.980448 1.774624 -0.113743 3.557559 1.239953 -1.836074 -3.933518 4.045977 -0.414599 11.459040 -2.417933 7.956104 -17.987299 -11.344626 -0.589859 -65.172112 14.328617 -26.828077 -23.054298 -5.000000 28.208664 -16.175760 -5.100959 7.068826 14.379719 14.250706 -0.750772 63.478672 -11.654386 -24.964991 25.104431 5.000000 17.693502 13.508441 -26.025595 8.622827 18.846693 12.665626 8.143498 5.953112 -4.607848 -0.645820 -11.164422 4.323070 -5.768480 23.374075 -7.459852 -6.758639 -2.955040 2.935352 -0.055398 -5.162037 -12.573496 6.563208 
0.033397 53.362564 -0.146550 -10.982538 0.439244 1.767676 23.960762 1.765769 -0.117701 3.547370 1.239944 -1.845835 -3.884007 4.047439 -0.404968 11.457686 -2.427604 7.956102 -17.987814 -11.393386 -0.592372 -65.165359 14.349044 -26.872843 -23.054348 -5.000000 28.191891 -16.077826 -5.171036 6.925142 14.409807 14.309216 -0.753800 63.431019 -11.683405 -24.985014 25.132940 5.000000 17.636633 13.489879 -26.059875 8.647624 18.831211 12.653182 8.140909 5.956681 -4.603208 -0.645654 -11.158215 4.306325 -5.831361 23.367777 -7.480457 -6.774052 -2.933485 2.942026 -0.073958 -5.199667 -12.595964 6.549708 
0.027344 53.363739 -0.145370 -10.971568 0.478288 1.767680 23.960566 1.698174 -0.134471 3.528262 1.239953 -1.836074 -3.854642 4.037784 -0.403508 11.462154 -2.398647 7.946350 -17.990215 -11.439131 -0.605924 -65.171783 14.361321 -26.901125 -23.064001 -5.000000 28.154642 -16.024530 -5.256012 6.820642 14.430270 14.377477 -0.757331 63.397324 -11.695518 -24.989971 25.151976 5.000000 17.581244 13.454550 -26.048592 8.676434 18.809919 12.614263 8.130944 5.969248 -4.587414 -0.627161 -11.162983 4.284721 -5.928452 23.351629 -7.527614 -6.767949 -2.942166 2.961486 -0.065649 -5.172775 -12.518603 6.565043 
0.021292 53.364914 -0.144190 -10.950919 0.517335 1.757917 23.960300 1.652135 -0.153129 3.508735 1.249721 -1.836075 -3.815579 4.037784 -0.403508 11.466613 -2.369688 7.936188 -17.990637 -11.478141 -0.607938 -65.179817 14.386547 -26.933949 -23.068882 -5.000000 28.117977 -15.970080 -5.343504 6.707554 14.450871 14.455491 -0.761366 63.356266 -11.724848 -24.999060 25.166407 5.000000 17.535137 13.414590 -26.039549 8.713770 18.793463 12.586303 8.152879 5.977526 -4.576564 -0.627556 -11.147927 4.261262 -6.027522 23.351526 -7.557048 -6.756196 -2.946999 2.955582 -0.084988 -5.167634 -12.549188 6.572376 
0.015821 53.365501 -0.143599 -10.930490 0.546618 1.757919 23.960117 1.615479 -0.167799 3.479652 1.249725 -1.826312 -3.785667 4.048901 -0.395336 11.475840 -2.379472 7.916673 -17.999041 -11.529916 -0.601354 -65.179413 14.407334 -26.968424 -23.078463 -5.000000 28.097515 -15.936607 -5.423199 6.613967 14.471478 14.533505 -0.765399 63.318108 -11.741113 -25.025364 25.183828 5.000000 17.490194 13.406873 -26.034931 8.738241 18.765409 12.557458 8.164447 5.986548 -4.564688 -0.627913 -11.103074 4.235432 -6.117448 23.334068 -7.577392 -6.751700 -2.958682 2.957714 -0.085729 -5.182393 -12.570023 6.552389 
0.010929 53.365505 -0.143594 -10.900293 0.575901 1.757920 23.950285 1.579128 -0.181960 3.460325 1.239962 -1.816548 -3.746118 4.079329 -0.390084 11.492153 -2.408604 7.897565 -18.009438 -11.588428 -0.604376 -65.172760 14.427801 -27.013165 -23.089735 -5.000000 28.103369 -15.903807 -5.500126 6.530575 14.472833 14.631023 -0.772906 63.284134 -11.766145 -25.070642 25.196466 5.000000 17.469624 13.411245 -26.052980 8.785164 18.748005 12.548078 8.180990 6.012581 -4.578933 -0.629911 -11.021219 4.190897 -6.227280 23.303972 -7.605830 -6.759762 -2.948397 2.967968 -0.085546 -5.193612 -12.521261 6.572966 
0.006037 53.365513 -0.143591 -10.880163 0.595423 1.757921 23.940578 1.560906 -0.188866 3.431240 1.239966 -1.797019 -3.716953 4.098640 -0.393004 11.507148 -2.447411 7.878048 -18.029602 -11.646939 -0.607397 -65.174553 14.452699 -27.056250 -23.096247 -5.000000 28.109806 -15.869884 -5.579641 6.437772 14.474062 14.718789 -0.777454 63.248131 -11.786876 -25.105413 25.210695 5.000000 17.442081 13.409504 -26.067297 8.827827 18.703011 12.526110 8.184864 6.031697 -4.568923 -0.660342 -10.932157 4.195865 -6.291322 23.266188 -7.625990 -6.765306 -2.935219 2.953531 -0.084251 -5.178750 -12.535702 6.588310 
